<?xml version="1.0" encoding="utf-8"?>
<!-- Generator: Adobe Illustrator 16.0.0, SVG Export Plug-In . SVG Version: 6.00 Build 0)  -->
<!DOCTYPE svg PUBLIC "-//W3C//DTD SVG 1.1//EN" "http://www.w3.org/Graphics/SVG/1.1/DTD/svg11.dtd">
<svg version="1.1" id="Layer_1" xmlns="http://www.w3.org/2000/svg" xmlns:xlink="http://www.w3.org/1999/xlink" x="0px" y="0px"
	 width="421.173px" height="75.6px" viewBox="0 0 421.173 75.6" style="enable-background:new 0 0 421.173 75.6;"
	 xml:space="preserve">
<style type="text/css">
<![CDATA[
	.st0{fill:#E7C61F;}
	.st1{fill:#F7F7F7;}
	.st2{fill:#010101;stroke:#010101;}
	.st3{fill:#010101;}
	.st4{fill:#094368;}
	.st5{fill:#A17A2C;}
]]>
</style>
<rect x="0" y="40.601" class="st4" width="421.173" height="22.764"/>
<circle class="st0" cx="113.125" cy="51.983" r="2.147"/>
<circle class="st0" cx="398.518" cy="51.983" r="2.148"/>
<g>
	<path d="M135.413,17.373h-0.267c-0.122-1.597-0.588-2.631-1.397-3.103c-0.81-0.471-1.808-0.707-2.995-0.707h-4.875v20.581
		c0,1.741,0.887,2.64,2.662,2.695v0.266h-7.803v-0.266c0.732-0.022,1.351-0.236,1.855-0.641c0.504-0.405,0.757-1.09,0.757-2.055
		V13.563h-4.875c-1.187,0-2.182,0.236-2.986,0.707c-0.804,0.472-1.273,1.506-1.406,3.103h-0.267v-5.99h0.267
		c0.177,0.278,0.333,0.483,0.466,0.616c0.133,0.133,0.305,0.247,0.516,0.341c0.21,0.094,0.458,0.161,0.74,0.2
		c0.283,0.039,0.618,0.058,1.007,0.058h15.872c1.054,0,1.875-0.405,2.462-1.215h0.267V17.373z"/>
	<path d="M156.343,23.812v-8.203c0-0.798-0.216-1.453-0.649-1.963s-1.104-0.766-2.013-0.766v-0.283h7.803v0.283
		c-0.91,0-1.575,0.252-1.997,0.757c-0.422,0.505-0.632,1.162-0.632,1.972v18.535c0,1.797,0.876,2.695,2.629,2.695v0.266h-7.803
		v-0.266c0.832,0,1.483-0.225,1.955-0.674c0.472-0.449,0.708-1.112,0.708-1.988v-9.617H142.3v9.583c0,0.854,0.241,1.517,0.724,1.988
		c0.482,0.471,1.128,0.707,1.938,0.707v0.266h-7.803v-0.266c0.843,0,1.489-0.236,1.938-0.707c0.449-0.472,0.674-1.134,0.674-1.988
		V15.609c0-1.819-0.871-2.729-2.612-2.729v-0.283h7.803v0.283c-0.921,0-1.595,0.252-2.021,0.757
		c-0.427,0.505-0.641,1.162-0.641,1.972v8.203H156.343z"/>
	<path d="M163.796,12.881v-0.283h14.608v3.86h-0.233c0-2.063-1.375-3.095-4.126-3.095h-5.108v11.131h4.492
		c0.887,0,1.681-0.144,2.379-0.433s1.098-0.948,1.198-1.98h0.25v5.557h-0.25c-0.1-0.632-0.289-1.117-0.565-1.456
		c-0.277-0.338-0.552-0.563-0.824-0.674c-0.272-0.11-0.513-0.166-0.724-0.166c-0.399-0.067-0.815-0.1-1.248-0.1h-4.708v8.702
		c0,0.655,0.125,1.22,0.375,1.697c0.25,0.477,0.829,0.716,1.739,0.716h3.644c0.876,0,1.597-0.127,2.163-0.383
		c0.565-0.255,1.012-0.61,1.339-1.065c0.327-0.455,0.602-1.003,0.824-1.647h0.233l-0.849,3.843h-14.608v-0.266h0.333
		c0.521,0,1.031-0.21,1.531-0.632c0.499-0.421,0.749-1.109,0.749-2.063V15.676c0-0.754-0.169-1.409-0.507-1.963
		c-0.338-0.555-0.929-0.832-1.772-0.832H163.796z"/>
	<path d="M201.697,37.105h-9.167v-0.266h0.333c0.621,0,1.156-0.225,1.605-0.674s0.674-1.123,0.674-2.021V15.643
		c0-0.876-0.208-1.556-0.624-2.038s-0.979-0.724-1.688-0.724h-0.3v-0.283h8.003c1.054,0,2.024,0.152,2.912,0.458
		c0.887,0.305,1.639,0.727,2.254,1.265s1.09,1.148,1.422,1.83c0.334,0.682,0.5,1.422,0.5,2.221c0,1.475-0.477,2.673-1.432,3.594
		c-0.953,0.92-2.234,1.597-3.843,2.03v0.066c0.732,0.078,1.437,0.194,2.112,0.349c0.678,0.156,1.287,0.372,1.83,0.649
		c0.545,0.277,1.055,0.638,1.531,1.082c0.434,0.399,0.799,0.838,1.098,1.314c0.301,0.477,0.527,0.996,0.684,1.556
		c0.154,0.56,0.232,1.134,0.232,1.722c0,1.275-0.33,2.374-0.99,3.294c-0.66,0.921-1.406,1.62-2.238,2.097
		C205.419,36.778,203.783,37.105,201.697,37.105z M197.671,23.845h1.597c1.309,0,2.241-0.133,2.795-0.399
		c0.355-0.177,0.724-0.421,1.106-0.732c0.382-0.311,0.749-0.799,1.098-1.464c0.349-0.666,0.524-1.469,0.524-2.412
		c0-0.732-0.117-1.428-0.35-2.088c-0.233-0.66-0.572-1.245-1.015-1.755c-0.444-0.51-0.971-0.91-1.581-1.198
		c-0.61-0.288-1.276-0.433-1.997-0.433c-0.632,0-1.359,0.122-2.18,0.366V23.845z M200.183,24.594h-2.512v8.835
		c0,0.588,0.058,1.079,0.175,1.472c0.117,0.394,0.435,0.735,0.957,1.023s1.325,0.433,2.413,0.433c2.251,0,3.855-0.749,4.808-2.246
		c0.654-1.032,0.982-2.19,0.982-3.478c0-0.932-0.164-1.774-0.492-2.529c-0.326-0.754-0.775-1.384-1.348-1.888
		c-0.57-0.505-1.289-0.901-2.154-1.19C202.146,24.738,201.204,24.594,200.183,24.594z"/>
	<path d="M212.063,12.881v-0.283h14.607v3.86h-0.232c0-2.063-1.375-3.095-4.127-3.095h-5.107v11.131h4.492
		c0.889,0,1.682-0.144,2.379-0.433c0.699-0.289,1.1-0.948,1.199-1.98h0.25v5.557h-0.25c-0.1-0.632-0.289-1.117-0.566-1.456
		c-0.277-0.338-0.551-0.563-0.824-0.674c-0.271-0.11-0.512-0.166-0.723-0.166c-0.4-0.067-0.814-0.1-1.248-0.1h-4.709v8.702
		c0,0.655,0.125,1.22,0.375,1.697c0.25,0.477,0.828,0.716,1.738,0.716h3.645c0.875,0,1.596-0.127,2.162-0.383
		c0.566-0.255,1.012-0.61,1.34-1.065c0.326-0.455,0.602-1.003,0.824-1.647h0.232l-0.85,3.843h-14.607v-0.266h0.332
		c0.521,0,1.032-0.21,1.531-0.632c0.499-0.421,0.748-1.109,0.748-2.063V15.676c0-0.754-0.169-1.409-0.507-1.963
		c-0.339-0.555-0.93-0.832-1.772-0.832H212.063z"/>
	<path d="M240.629,12.299l7.338,20.997c0.387,1.087,0.754,1.875,1.098,2.363c0.344,0.488,0.674,0.796,0.99,0.923
		s0.717,0.213,1.205,0.258v0.266h-8.002v-0.266c0.82,0,1.453-0.078,1.896-0.233s0.666-0.577,0.666-1.265
		c0-0.377-0.105-0.882-0.316-1.514c-0.045-0.088-0.066-0.155-0.066-0.199l-2.18-6.505h-8.484l-1.947,6.022
		c-0.266,0.821-0.4,1.481-0.4,1.98c0,0.688,0.172,1.146,0.516,1.373c0.344,0.228,0.832,0.341,1.465,0.341v0.266h-5.756v-0.266
		c0.82-0.078,1.477-0.391,1.971-0.94c0.494-0.549,0.924-1.384,1.289-2.504l6.922-21.096H240.629z M235.055,26.241h7.805
		l-3.994-11.63h-0.066L235.055,26.241z"/>
	<path d="M253.174,12.947h-0.332v-0.349h8.484c1.365,0,2.521,0.211,3.471,0.632c0.947,0.421,1.686,0.957,2.213,1.605
		c0.525,0.649,0.902,1.334,1.131,2.055c0.227,0.721,0.34,1.431,0.34,2.129c0,0.888-0.186,1.739-0.557,2.554
		c-0.371,0.815-0.943,1.517-1.713,2.104c-0.771,0.588-1.734,0.987-2.887,1.198v0.066c1.463,0.71,2.816,2.119,4.059,4.226
		l2.213,3.743c0.998,1.675,1.801,2.734,2.404,3.178c0.605,0.444,1.201,0.693,1.789,0.749v0.266h-4.459
		c-0.189-0.244-0.367-0.479-0.533-0.707c-0.166-0.227-0.344-0.469-0.531-0.724c-0.111-0.167-0.275-0.419-0.492-0.757
		c-0.215-0.338-0.346-0.529-0.391-0.574l-2.928-4.842c-0.588-0.987-1.189-1.789-1.805-2.404c-0.615-0.615-1.189-1.056-1.723-1.322
		c-0.533-0.267-1.012-0.433-1.439-0.5c-0.426-0.066-0.93-0.1-1.506-0.1v8.968c0,1.741,0.889,2.64,2.662,2.695v0.266h-7.803v-0.266
		c0.488-0.022,0.92-0.114,1.297-0.274s0.691-0.438,0.941-0.832s0.373-0.923,0.373-1.589V15.609c0-0.976-0.238-1.664-0.715-2.063
		S253.74,12.947,253.174,12.947z M257.982,24.527h1.398c1.463,0,2.664-0.21,3.602-0.632c0.938-0.421,1.617-1.023,2.039-1.805
		c0.42-0.782,0.631-1.739,0.631-2.87c0-0.942-0.188-1.866-0.564-2.77c-0.377-0.904-1.018-1.664-1.922-2.279
		s-2.121-0.923-3.652-0.923c-0.621,0-1.131,0.05-1.531,0.149V24.527z"/>
	<path d="M275.285,12.881v-0.283h9.434c1.32,0,2.537,0.114,3.652,0.341c1.115,0.228,2.113,0.53,2.994,0.907
		c0.883,0.377,1.645,0.791,2.289,1.24c0.643,0.449,1.186,0.907,1.629,1.373c0.777,0.776,1.438,1.639,1.98,2.587
		c0.543,0.948,0.951,1.949,1.223,3.003s0.408,2.141,0.408,3.261c0,1.121-0.133,2.186-0.398,3.195
		c-0.268,1.009-0.65,1.944-1.148,2.803c-0.5,0.86-1.096,1.639-1.789,2.338c-0.693,0.699-1.5,1.331-2.42,1.896
		c-0.789,0.466-1.693,0.843-2.713,1.131c-1.021,0.289-2.402,0.433-4.143,0.433h-10.998v-0.266h0.334
		c0.764,0,1.336-0.289,1.713-0.865s0.566-1.187,0.566-1.83V15.643c0-0.621-0.104-1.142-0.309-1.564
		c-0.205-0.421-0.48-0.726-0.824-0.915c-0.344-0.188-0.727-0.283-1.146-0.283H275.285z M280.426,13.763v19.417
		c0,0.954,0.152,1.655,0.459,2.104c0.305,0.449,0.779,0.74,1.422,0.874c0.643,0.133,1.586,0.2,2.828,0.2
		c1.775,0,3.271-0.175,4.492-0.524c1.221-0.349,2.402-1.128,3.545-2.337c0.842-0.898,1.52-1.997,2.029-3.294
		s0.766-2.867,0.766-4.708c0-1.453-0.205-2.892-0.617-4.317c-0.41-1.425-1.037-2.692-1.879-3.802
		c-0.943-1.253-2.154-2.235-3.635-2.945c-1.482-0.709-3.264-1.065-5.35-1.065C283.41,13.363,282.057,13.497,280.426,13.763z"/>
	<path d="M335.332,18.088h-0.283c-0.211-1.198-0.773-2.213-1.689-3.044c-0.914-0.832-1.965-1.439-3.152-1.822
		c-1.188-0.383-2.297-0.574-3.328-0.574c-1.408,0-2.73,0.297-3.967,0.89c-1.238,0.594-2.305,1.431-3.203,2.512
		s-1.598,2.379-2.096,3.894c-0.5,1.514-0.75,3.158-0.75,4.933c0,1.719,0.242,3.313,0.725,4.783s1.186,2.745,2.113,3.827
		c0.926,1.082,1.998,1.899,3.219,2.454s2.572,0.832,4.059,0.832c1.242,0,2.607-0.252,4.094-0.757
		c1.486-0.504,2.828-1.345,4.025-2.521v0.948c-1.475,1.143-2.824,1.98-4.051,2.512c-1.225,0.533-2.754,0.799-4.584,0.799
		c-1.93,0-3.689-0.353-5.281-1.057s-2.938-1.655-4.035-2.854c-1.098-1.198-1.93-2.545-2.496-4.043
		c-0.564-1.497-0.848-3.039-0.848-4.625c0-2.385,0.588-4.601,1.764-6.647s2.768-3.666,4.775-4.858
		c2.006-1.192,4.186-1.789,6.537-1.789c1.453,0,3,0.216,4.643,0.649l1.73,0.482c0.332,0.066,0.615,0.1,0.848,0.1
		c0.434,0,0.721-0.063,0.865-0.191c0.145-0.127,0.256-0.357,0.334-0.69h0.266L335.332,18.088z"/>
	<path d="M337.76,36.839h0.334c0.598,0,1.127-0.236,1.588-0.707c0.461-0.472,0.691-1.134,0.691-1.988V15.643
		c0-1.02-0.258-1.73-0.775-2.129c-0.516-0.399-1.127-0.61-1.838-0.632v-0.283h7.836v0.283c-0.688,0.022-1.297,0.228-1.83,0.616
		c-0.531,0.388-0.799,1.104-0.799,2.146v17.886c0,1.065,0.268,1.803,0.799,2.213c0.533,0.411,1.404,0.616,2.613,0.616h2.113
		c0.92,0,1.654-0.111,2.203-0.333c0.549-0.222,0.984-0.56,1.307-1.015c0.322-0.455,0.648-1.098,0.982-1.93h0.281l-0.932,4.026
		H337.76V36.839z"/>
	<path d="M378.107,37.105h-5.141v-4.06l-0.084-0.066c-0.709,1.653-1.771,2.861-3.186,3.627c-1.414,0.765-2.893,1.148-4.434,1.148
		c-1.742,0-3.309-0.416-4.701-1.248c-1.391-0.832-2.414-1.857-3.068-3.078c-0.467-0.865-0.76-1.767-0.883-2.704
		c-0.121-0.938-0.184-1.911-0.184-2.92V15.609c0-0.732-0.146-1.348-0.439-1.847c-0.295-0.499-0.996-0.793-2.105-0.882v-0.283h7.703
		v0.283c-1.131,0.133-1.852,0.46-2.162,0.981c-0.311,0.521-0.467,1.104-0.467,1.747v11.996c0,2.44,0.25,4.243,0.75,5.407
		c0.531,1.242,1.33,2.213,2.395,2.912s2.273,1.048,3.627,1.048c0.566,0,1.236-0.1,2.014-0.299c0.775-0.2,1.502-0.532,2.18-0.998
		c2.029-1.387,3.045-3.61,3.045-6.672V15.609c0-0.676-0.156-1.275-0.467-1.797c-0.311-0.521-1.043-0.832-2.195-0.932v-0.283h7.836
		v0.283c-1.131,0.056-1.857,0.372-2.18,0.948c-0.322,0.577-0.482,1.159-0.482,1.747v18.568c0,0.644,0.109,1.151,0.324,1.522
		c0.217,0.372,0.516,0.635,0.898,0.79s0.852,0.283,1.406,0.383V37.105z"/>
	<path d="M389.654,37.105h-9.168v-0.266h0.332c0.621,0,1.156-0.225,1.605-0.674s0.674-1.123,0.674-2.021V15.643
		c0-0.876-0.207-1.556-0.623-2.038s-0.979-0.724-1.689-0.724h-0.299v-0.283h8.002c1.055,0,2.025,0.152,2.912,0.458
		c0.889,0.305,1.639,0.727,2.254,1.265c0.617,0.538,1.09,1.148,1.424,1.83c0.332,0.682,0.498,1.422,0.498,2.221
		c0,1.475-0.477,2.673-1.43,3.594c-0.955,0.92-2.236,1.597-3.844,2.03v0.066c0.732,0.078,1.436,0.194,2.113,0.349
		c0.676,0.156,1.287,0.372,1.83,0.649c0.543,0.277,1.053,0.638,1.531,1.082c0.432,0.399,0.797,0.838,1.098,1.314
		c0.299,0.477,0.525,0.996,0.682,1.556s0.232,1.134,0.232,1.722c0,1.275-0.33,2.374-0.99,3.294c-0.658,0.921-1.404,1.62-2.236,2.097
		C393.375,36.778,391.738,37.105,389.654,37.105z M385.627,23.845h1.598c1.309,0,2.24-0.133,2.795-0.399
		c0.355-0.177,0.725-0.421,1.107-0.732s0.748-0.799,1.098-1.464s0.523-1.469,0.523-2.412c0-0.732-0.115-1.428-0.35-2.088
		c-0.232-0.66-0.57-1.245-1.014-1.755s-0.971-0.91-1.582-1.198c-0.609-0.288-1.275-0.433-1.996-0.433
		c-0.631,0-1.357,0.122-2.18,0.366V23.845z M388.141,24.594h-2.514v8.835c0,0.588,0.059,1.079,0.176,1.472
		c0.115,0.394,0.436,0.735,0.957,1.023c0.52,0.289,1.324,0.433,2.412,0.433c2.252,0,3.854-0.749,4.809-2.246
		c0.654-1.032,0.98-2.19,0.98-3.478c0-0.932-0.164-1.774-0.49-2.529c-0.328-0.754-0.777-1.384-1.348-1.888
		c-0.572-0.505-1.289-0.901-2.154-1.19C390.104,24.738,389.16,24.594,388.141,24.594z"/>
</g>
<g>
	<path class="st5" d="M87.839,28.636c0.004,0.005,0.654,0.778,0.731,0.896c0.442,0.676,1.083,1.653,1.71,2.814
		c0.246,0.362,0.469,0.656,0.629,0.808c0.294-0.438,0.746-1.628,1.065-3.458c0.195-1.12,0.293-2.213,0.293-3.178
		c0-0.197-0.005-0.388-0.014-0.573c-0.257-0.941-0.732-1.688-1.165-2.218c-0.937-0.29-1.887-0.565-2.7-0.796
		c-0.229-0.051-0.453-0.099-0.671-0.143c-0.448-0.07-0.909-0.149-1.381-0.233c-0.516-0.067-0.931-0.092-1.174-0.064
		c-0.195,0.715,1.133,2.045,1.133,2.045c-0.706-0.283-2.731-2.136-3.176-2.546c-0.072,0-0.138,0.007-0.198,0.017
		c-0.544,0.674,1.414,2.581,0.507,2.051c-0.657-0.384-1.427-1.37-1.844-1.949c-0.563,1.227-0.166,3.738-0.195,4.251
		c-0.296,0.467-0.703-4.937-1.742-2.34c-1.039,2.596-5.803,6.179-5.611,5.761c0.445-0.382,0.856-0.816,1.239-1.278
		c-1.089,1.066-2.38,1.771-3.951,1.801c0.389,0.125,0.775,0.26,1.159,0.415l-14.894-0.245c0,0,0.09-0.028,0.256-0.075
		c-1.005-0.042-1.994-0.234-2.752-0.943c-1.289-0.932-4.212-3.463-4.999-5.43c-1.04-2.597-1.446,2.808-1.743,2.341
		c-0.029-0.513,0.369-3.024-0.195-4.25c-0.416,0.578-1.186,1.565-1.845,1.948c-0.906,0.53,1.052-1.378,0.508-2.05
		c-0.061-0.01-0.126-0.016-0.198-0.019c-0.444,0.413-2.47,2.264-3.177,2.547c0,0,1.33-1.33,1.133-2.045
		c-0.243-0.027-0.658-0.001-1.173,0.064c-0.472,0.084-0.934,0.163-1.381,0.233c-0.218,0.044-0.443,0.091-0.67,0.144
		c-0.813,0.229-1.764,0.504-2.7,0.795c-0.434,0.528-0.908,1.277-1.167,2.217c-0.008,0.186-0.012,0.376-0.012,0.573
		c0,0.966,0.098,2.059,0.292,3.179c0.319,1.828,0.77,3.018,1.064,3.457c0.162-0.153,0.384-0.445,0.631-0.807
		c0.626-1.161,1.266-2.141,1.709-2.816c0.077-0.116,0.727-0.888,0.731-0.894c1.189-1.47,1.441-0.943,1.247-0.684
		c-0.046,0.062-0.975,1.547-1.071,1.697c-0.089,0.149-0.196,0.333-0.311,0.529c-0.678,1.16-1.188,1.994-1.596,2.588
		c-0.833,1.551-2.246,4.151-0.896,10.897c1.348,6.746,6.679,10.964,6.39,10.333c-0.323-0.704-1.726-6.537-1.13-5.729
		c0.595,0.808,3.228,6.434,3.228,6.434c-4.282-15.539,0.613-20.466,2.314-21.654c0.144-0.079,0.239-0.043,0.097,0.105
		c-5.666,5.96-1.195,21.834-1.227,21.078c-0.884-10.87,0.861-10.752,0.861-10.752c-2.045,6.714,2.744,16.762,2.744,16.762
		c-2.744-5.916-0.517-9.237-0.161-9.109c-2.159,5.738,3.928,12.584,5.166,14.416c1.004,1.485,4.119,4.56,4.5,4.288
		c0.381-0.272-4.077-6.146-3.61-6.128c0.751,0.352,1.244,2.818,4.486,5.432c0.06-0.901,0.359-1.498,0.307-1.002
		c-0.043,0.403,0.368,1.323,0.724,2.029c0.399,0.294,0.915,0.307,1.351,0.241c0.376-0.718,0.95-1.896,0.9-2.368
		c-0.059-0.551,0.316,0.242,0.318,1.303c3.484-2.687,3.985-5.281,4.756-5.641c0.465-0.019-1.706,4.511-3.611,6.127
		c0.931-0.729,3.495-2.801,4.5-4.289c1.238-1.832,7.325-8.678,5.166-14.414c0.356-0.129,2.583,3.193-0.162,9.108
		c0,0,4.789-10.048,2.745-16.762c0,0,1.746-0.117,0.861,10.752c-0.031,0.756,4.439-15.118-1.226-21.079
		c-0.142-0.148-0.048-0.184,0.097-0.105c1.701,1.19,6.596,6.117,2.313,21.653c0,0,2.633-5.623,3.229-6.433
		c0.596-0.807-0.808,5.024-1.13,5.729c-0.289,0.631,5.042-3.586,6.39-10.332c1.349-6.746-0.063-9.347-0.897-10.896
		c-0.405-0.596-0.917-1.429-1.595-2.588c-0.113-0.196-0.221-0.379-0.309-0.529c-0.098-0.149-1.027-1.636-1.072-1.696
		C86.396,27.695,86.649,27.167,87.839,28.636z"/>
	<path class="st5" d="M58.208,63.674c-0.021-0.061-0.005-0.02,0.044,0.095C58.231,63.731,58.215,63.699,58.208,63.674z"/>
	<path class="st5" d="M71.537,63.67c-0.007,0.022-0.025,0.057-0.045,0.094C71.542,63.646,71.559,63.607,71.537,63.67z"/>
	<path class="st5" d="M27.444,2.158c-0.659-0.146-1.324-0.191-2.196,0.358c-0.216,0.136-1.243,0.901-1.477,1.125
		c-1.481,1.439-2.417,4.125-2.438,6.947C21.823,8.138,23.286,3.504,27.444,2.158z"/>
	<path class="st5" d="M99.473,2.082c-0.693-0.163-1.698,0.015-2.391,0.237c1.782,0.116,2.995,0.759,4.701,1.767
		c0.69,0.409,2.924,1.95,2.924,4.76c0,0.031,0,0.062-0.001,0.093c0,0.013,0,0.024,0,0.035c0,0.805-0.454,2.524-0.803,3.819
		c-0.348,1.294-0.531,1.285-0.605,1.253c-0.074-0.033-0.023-0.251,0.031-0.606c0.052-0.355-0.267-0.722-0.651-0.338
		c-0.384,0.385-1.5,1.22-1.634,1.295c-2.125,1.34-5.203,1.435-9.411,0.29c-3.679-1.001-7.608-2.811-8.738-3.301
		c-1.131-0.491-2.613-1.292-2.722-1.355c0.084,0.111,0.163,0.231,0.229,0.357c0.458,0.871,0.391,1.633,0.229,1.375
		c-0.161-0.258-1.466-2.017-1.466-2.017c0.595,1.329,0.302,2.142,0.183,1.971c-0.013-0.021-0.029-0.066-0.048-0.135
		c-0.038-0.058-0.087-0.156-0.146-0.328c-0.13-0.396-1.409-3.212-3.999-2.797c0.625,0.731,0.671,2.246,0.671,2.246
		c-0.229,0.747-0.631,0.172-0.631,0.172c-0.805-2.24-2.585-3.446-2.585-3.446c-3.024-1.585-4.97-0.851-6.15,0.247
		c-0.055,0.117-0.163,0.276-0.355,0.492c-0.81,0.913-0.742,2.844-0.742,2.844c-0.688,0.574-1.05-0.13-1.05-0.13
		c0.062-1.288-0.647-2.54-1.018-3.103c-1.18-1.099-3.127-1.837-6.156-0.25c0,0-1.78,1.206-2.584,3.445c0,0-0.402,0.574-0.632-0.172
		c0,0,0.049-1.595,0.723-2.302c-2.624-0.459-3.919,2.39-4.05,2.789c-0.066,0.195-0.121,0.296-0.16,0.35
		c-0.013,0.042-0.025,0.071-0.036,0.085c-0.118,0.171-0.412-0.641,0.185-1.97c0,0-1.307,1.757-1.467,2.016
		c-0.161,0.258-0.229-0.504,0.229-1.375c0.067-0.126,0.145-0.245,0.229-0.356c-0.108,0.064-1.591,0.863-2.721,1.355
		c-1.13,0.492-5.06,2.3-8.739,3.301c-4.208,1.146-7.287,1.05-9.41-0.29c-0.135-0.074-1.25-0.91-1.636-1.294
		c-0.384-0.384-0.703-0.019-0.65,0.337c0.052,0.355,0.104,0.575,0.031,0.605c-0.074,0.032-0.259,0.042-0.607-1.253
		c-0.348-1.293-0.802-3.013-0.802-3.817c0-0.013,0-0.024,0-0.037c0-0.03-0.001-0.061-0.001-0.093c0-2.811,2.233-4.351,2.924-4.76
		c1.706-1.008,2.919-1.651,4.701-1.767c-0.812-0.26-2.053-0.461-2.717-0.124c-0.289,0.147-1.795,0.427-1.795,0.427
		s-4.531,2.104-5.859,5.795c0,0-0.841,2.053-0.723,4.725c0.454,2.289,1.55,4.255,3.183,5.659c0.078,0.068,0.157,0.131,0.235,0.197
		c-0.974-1.71-1.111-3.745-0.771-3.741c0.45,2.681,1.718,4.3,2.945,5.266c1.338,0.774,2.777,1.317,4.388,1.642
		c1.148,0.159,2.092,0.063,2.518-0.036c0.296-0.069,0.49-0.195,0.577-0.375c0.12-0.249-0.008-0.524-0.009-0.526l0.075-0.051
		c0.26,0.282,0.329,0.497,0.332,0.507c0.191,0.643-0.091,1.209-0.104,1.233l0.002-0.002c-0.002,0.003-0.004,0.008-0.006,0.012
		c-0.116,0.244-0.683,0.827-0.787,0.943c-0.104,0.118-0.83,0.616-1.352,0.901c0.177,0.003,0.36-0.006,0.542-0.022
		c0.093-0.011,0.188-0.026,0.286-0.042c1.009-0.139,3.036-1.043,3.612-1.412c0.125-0.081,0.235-0.152,0.34-0.22
		c1.708-1.469,1.288-0.894,3.375-0.96c0.704-0.147,1.278-0.262,1.278-0.262s2.456-0.421,5.25-1.009
		c1.187-0.328,2.189-0.665,2.864-0.932c1.2-0.532,1.705-0.963,1.713-0.971l0.095-0.084l-0.02,0.124
		c0.037,0.015,0.049,0.062,0.036,0.148c-0.047,0.284-0.801,2.017-0.835,2.582c0.374-0.165,0.803-0.441,1.239-0.765
		c1.014-0.96,2.087-2.251,2.548-3.047c0.463-0.795,1.132-2.928,1.109-2.468c-0.023,0.459-0.105,2.764-0.254,4.464
		c0.007,0.087,0.01,0.176,0.01,0.267c0,0.166-0.01,0.338-0.026,0.511l0.021,0.047c0.282-0.709,0.787-1.982,1.088-2.66
		c0.394-1.146,0.7-1.959,0.934-2.517c0.291-0.825,0.527-2.076,0.683-2.094c0.156-0.019,0.461,5.249,0.5,6.003
		c0.308-0.446,0.569-0.979,0.807-1.471c0.196-0.404,1.574-3.568,1.789-3.644c0.214-0.075,0.271,2.204,0.341,3.211
		c0.78-1.09,1.119-1.759,1.504-2.661h-0.001c0,0,0.01-0.022,0.026-0.061c0.043-0.1,0.086-0.203,0.131-0.31
		c0.055-0.133,0.12-0.278,0.188-0.435c0.127-0.297,0.266-0.623,0.372-0.882c0.084-0.215,0.166-0.438,0.238-0.67h0.151
		c0.101-0.054,0.216-0.059,0.322,0h0.087l0.052,0.123c0.048,0.063,0.091,0.144,0.125,0.247c0.044,0.134,0.091,0.262,0.138,0.388
		l0.396,0.955c0.038,0.091,0.077,0.178,0.114,0.268c0.461,1.101,0.777,1.797,1.661,3.031c0.07-1.007,0.126-3.286,0.341-3.211
		c0.213,0.077,1.591,3.239,1.787,3.644c0.239,0.491,0.5,1.026,0.809,1.471c0.038-0.756,0.343-6.021,0.499-6.003
		c0.156,0.019,0.391,1.269,0.682,2.093c0.235,0.559,0.542,1.372,0.935,2.517c0.302,0.679,0.806,1.951,1.088,2.66l0.021-0.045
		c-0.016-0.173-0.026-0.345-0.026-0.511c0-0.093,0.003-0.181,0.009-0.269c-0.147-1.7-0.231-4.003-0.253-4.463
		c-0.023-0.46,0.646,1.672,1.109,2.468c0.462,0.794,1.534,2.086,2.548,3.048c0.437,0.323,0.866,0.599,1.239,0.765
		c-0.034-0.566-0.787-2.298-0.834-2.583c-0.014-0.085-0.001-0.132,0.034-0.148l-0.019-0.124l0.094,0.084
		c0.009,0.007,0.513,0.438,1.714,0.971c0.675,0.268,1.678,0.605,2.864,0.931c0.635,0.133,1.254,0.259,1.829,0.374
		c0.753,0.099,1.818,0.235,3.288,0.417c3.784,0.464,2.736-0.7,4.89,1.164c2.154,1.862,4.677,1.973,4.677,1.973
		c-0.571-0.312-1.05-0.618-1.432-0.955c-0.383-0.338-0.61-0.666-0.712-0.902l0.001,0.003c-0.011-0.022-0.294-0.589-0.104-1.233
		c0.004-0.009,0.073-0.224,0.332-0.505l0.075,0.05c0,0.004-0.127,0.278-0.007,0.526c0.086,0.182,0.281,0.307,0.577,0.375
		c0.227,0.054,0.606,0.106,1.084,0.118c0.029-0.003,0.045-0.006,0.045-0.006c-0.005,0.003-0.011,0.005-0.016,0.006
		c0.407,0.011,0.884-0.009,1.402-0.082c1.613-0.325,3.05-0.868,4.389-1.641c1.225-0.967,2.495-2.584,2.945-5.266
		c0.338-0.004,0.202,2.029-0.771,3.741c0.077-0.065,0.157-0.129,0.235-0.196c1.638-1.41,2.737-3.382,3.187-5.68
		c0.088-2.613-0.728-4.605-0.728-4.605C105.778,3.859,100.611,2.608,99.473,2.082z"/>
	<path class="st5" d="M104.497,2.509c-0.953-0.6-1.659-0.491-2.378-0.315c4.298,1.268,5.796,6.001,6.294,8.487
		c-0.003-2.858-0.941-5.591-2.441-7.047C105.739,3.409,104.712,2.646,104.497,2.509z"/>
	<path class="st3" d="M69.771,29.885c0.006-0.004,0.01-0.008,0.017-0.013c-0.067-0.008-0.132-0.019-0.195-0.035
		c-0.162-0.011-0.328-0.028-0.48-0.076c-0.087-0.027-0.175-0.054-0.264-0.076c-0.042-0.005-0.102-0.011-0.128-0.012
		c-0.079,0-0.156-0.01-0.232-0.024c-2.757-0.416-5.41-0.231-7.409,0.068c-0.007-0.005-0.015-0.008-0.023-0.013
		c-0.031,0.011-0.06,0.023-0.094,0.032c-0.04,0.01-0.08,0.018-0.12,0.023c-0.14,0.055-0.293,0.08-0.446,0.074
		c-0.049,0.016-0.102,0.03-0.119,0.033c-0.083,0.014-0.164,0.024-0.246,0.035c-0.111,0.032-0.228,0.055-0.35,0.066
		c-0.003-0.002-0.007-0.002-0.014-0.002c-1.291,0.258-2.077,0.509-2.077,0.509l14.894,0.245
		C71.59,30.359,70.68,30.086,69.771,29.885z"/>
	<path class="st3" d="M106.547,3.042c-0.299-0.288-1.374-1.081-1.611-1.231c-1.338-0.844-2.38-0.579-3.216-0.366
		c-0.59,0.149-1.056,0.267-1.547,0.017c-1.246-0.637-3.736,0.011-4.383,0.587c-0.301,0.269-0.244,0.54-0.205,0.644
		c0.138,0.37,0.598,0.425,1.03,0.432c1.775,0.026,2.86,0.554,4.75,1.67c0.602,0.357,2.563,1.708,2.517,4.136v0.012
		c0.023,2.896-3.212,4.717-3.245,4.735c-0.006,0.005-0.015,0.008-0.022,0.014c-4.215,2.676-18.978-3.786-19.635-4.102
		c-0.656-0.315-0.876-0.661-1.394-0.484c-0.071,0.024-0.169,0.071-0.262,0.161c-0.268-0.155-0.504-0.22-0.619-0.163
		c-0.275,0.138-0.595-0.733-1.924-1.237c-1.33-0.504-2.062-0.275-2.062-0.275s-0.597-0.78-2.155-1.329
		c-1.165-0.411-3.063-1.161-5.273-0.168c-0.452,0.203-0.837,0.463-1.163,0.748l-0.036-0.019c-0.72,0.414-1.696,0.333-2.244,0.242
		c-0.371-0.369-0.829-0.71-1.395-0.964c-2.209-0.992-4.108-0.242-5.272,0.168c-1.559,0.55-2.154,1.33-2.154,1.33
		s-0.733-0.23-2.062,0.274c-1.329,0.505-1.65,1.375-1.925,1.238c-0.116-0.058-0.351,0.006-0.619,0.162
		c-0.092-0.09-0.19-0.138-0.263-0.161c-0.518-0.176-0.737,0.169-1.395,0.485c-0.656,0.315-15.418,6.777-19.634,4.102
		c-0.008-0.005-0.015-0.011-0.022-0.013c-0.032-0.019-3.267-1.839-3.245-4.736c0-0.004,0-0.007,0-0.01
		c-0.046-2.429,1.917-3.78,2.518-4.136c1.889-1.117,2.974-1.646,4.749-1.671c0.432-0.006,0.892-0.063,1.031-0.433
		c0.039-0.104,0.096-0.374-0.207-0.643c-0.646-0.577-3.135-1.226-4.383-0.589C29.08,1.718,28.615,1.6,28.025,1.451
		c-0.836-0.213-1.878-0.477-3.217,0.368c-0.236,0.149-1.312,0.942-1.61,1.231c-1.728,1.677-2.782,4.842-2.684,8.063
		c0.04,1.342,0.27,2.613,0.673,3.782c1.556,8.502,10.172,8.902,12.175,8.879c-0.473,0.332-1.084,0.667-1.562,0.882
		c-0.101,0.046-0.164,0.149-0.162,0.261c0.003,0.11,0.073,0.207,0.177,0.248c0.408,0.154,0.935,0.179,1.449,0.144
		c0.524,0.032,1.365-0.138,2.108-0.333c0.235-0.058,0.479-0.127,0.728-0.208c0.094-0.029,0.184-0.059,0.267-0.086
		c0.138-0.046,0.293-0.104,0.457-0.167c-0.114,0.586-0.165,1.267-0.165,1.989c0,2.996,0.871,6.714,1.786,7.455
		c0.004,0.004,0.009,0.008,0.014,0.011c0.054,0.041,0.115,0.066,0.179,0.082c-0.673,1.546-1.188,3.269-1.188,4.973
		c0,0.508,0.095,2.655,0.418,4.52c0.32,1.863,0.963,3.605,2.366,6.695c1.646,3.627,4.129,6.768,7.589,9.6
		c0.146,0.119,0.356,0.125,0.507,0.013c0.107-0.079,0.167-0.204,0.167-0.332c0-0.053-0.011-0.106-0.032-0.157
		c-0.188-0.453-0.381-0.955-0.533-1.385c0.454,0.434,1.028,1.016,1.532,1.55c0.136,0.146,0.356,0.173,0.523,0.063
		c0.122-0.077,0.19-0.209,0.19-0.344c0-0.056-0.011-0.107-0.03-0.157c-0.364-0.896-0.645-1.957-0.679-2.642
		c0.174,0.348,0.386,0.809,0.594,1.266c1.471,3.222,4.53,9.923,10.285,13.967c0.132,0.095,0.309,0.104,0.448,0.018
		c0.091-0.055,0.155-0.14,0.184-0.239c0.564,0.517,1.099,1.049,1.099,1.049s0.853,0.649,0.921,0.688
		c0.458,0.27,1.791,0.743,3.061,0.122c0.314-0.133,1.139-0.616,1.139-0.616s0.92-0.661,1.567-1.247
		c0.029,0.098,0.092,0.183,0.183,0.237c0.14,0.084,0.315,0.077,0.449-0.017c5.755-4.044,8.814-10.747,10.285-13.969
		c0.208-0.455,0.419-0.916,0.592-1.264c-0.032,0.684-0.313,1.745-0.677,2.641c-0.019,0.051-0.03,0.103-0.03,0.154
		c0,0.138,0.069,0.27,0.19,0.348c0.167,0.108,0.386,0.081,0.523-0.063c0.504-0.536,1.077-1.119,1.532-1.55
		c-0.152,0.428-0.347,0.933-0.533,1.384c-0.021,0.051-0.032,0.104-0.032,0.158c0,0.128,0.06,0.251,0.167,0.333
		c0.152,0.111,0.361,0.105,0.507-0.015c3.461-2.831,5.943-5.974,7.59-9.599c1.403-3.09,2.045-4.834,2.366-6.697
		c0.322-1.861,0.418-4.012,0.418-4.52c0-1.704-0.516-3.426-1.188-4.972c0.063-0.017,0.124-0.043,0.178-0.083
		c0.005-0.004,0.009-0.007,0.013-0.011c0.917-0.741,1.787-4.46,1.787-7.454c0-0.729-0.053-1.414-0.168-2.004
		c1.137,0.473,2.25,0.668,2.997,0.749c0.671,0.095,1.455,0.129,2.013-0.084c0.104-0.04,0.173-0.137,0.177-0.248
		c0.004-0.111-0.061-0.213-0.161-0.259c-0.478-0.217-1.088-0.55-1.562-0.883c2.004,0.024,10.619-0.376,12.176-8.878
		c0.402-1.169,0.633-2.441,0.673-3.782C109.329,7.884,108.275,4.719,106.547,3.042z M23.771,3.642
		c0.233-0.225,1.261-0.989,1.477-1.125c0.872-0.55,1.538-0.504,2.196-0.358c-4.159,1.346-5.622,5.98-6.111,8.431
		C21.355,7.767,22.29,5.081,23.771,3.642z M91.975,29.696c-0.319,1.829-0.771,3.02-1.065,3.458
		c-0.161-0.152-0.384-0.446-0.629-0.808c-0.627-1.162-1.268-2.139-1.71-2.814c-0.077-0.117-0.727-0.89-0.731-0.896
		c-1.19-1.469-1.442-0.941-1.247-0.682c0.045,0.06,0.974,1.546,1.072,1.696c0.088,0.15,0.196,0.333,0.309,0.529
		c0.679,1.16,1.19,1.993,1.595,2.588c0.834,1.549,2.246,4.15,0.897,10.896c-1.348,6.746-6.679,10.963-6.39,10.332
		c0.322-0.704,1.726-6.535,1.13-5.729c-0.596,0.81-3.229,6.433-3.229,6.433c4.283-15.536-0.611-20.463-2.313-21.653
		c-0.146-0.079-0.239-0.043-0.097,0.105c5.666,5.96,1.195,21.834,1.226,21.079c0.885-10.869-0.861-10.752-0.861-10.752
		c2.044,6.714-2.745,16.762-2.745,16.762c2.745-5.915,0.518-9.237,0.162-9.108c2.159,5.736-3.928,12.582-5.166,14.414
		c-1.005,1.488-3.16,3.175-3.16,3.175s2.736-5.031,2.271-5.013c-0.771,0.359-1.272,2.954-4.756,5.641
		c-0.001-1.061-0.377-1.854-0.318-1.303c0.05,0.473-0.727,2.109-0.854,2.236c-0.128,0.13-0.999,0.185-1.397-0.109
		c-0.355-0.706-0.767-1.626-0.724-2.029c0.052-0.496-0.248,0.101-0.307,1.002c-3.242-2.613-3.735-5.08-4.486-5.432
		c-0.467-0.018,2.696,5.313,2.696,5.313s-2.582-1.988-3.586-3.474c-1.238-1.832-7.325-8.678-5.166-14.416
		c-0.356-0.128-2.583,3.193,0.161,9.109c0,0-4.789-10.048-2.744-16.762c0,0-1.745-0.118-0.861,10.752
		c0.032,0.757-4.438-15.117,1.227-21.078c0.142-0.148,0.047-0.185-0.097-0.105c-1.701,1.188-6.596,6.115-2.314,21.654
		c0,0-2.633-5.626-3.228-6.434c-0.595-0.809,0.808,5.024,1.13,5.729c0.289,0.631-5.042-3.587-6.39-10.333
		c-1.35-6.746,0.063-9.346,0.896-10.897c0.407-0.594,0.917-1.428,1.596-2.588c0.114-0.196,0.221-0.38,0.311-0.529
		c0.096-0.149,1.025-1.635,1.071-1.697c0.195-0.259-0.058-0.787-1.247,0.684c-0.004,0.005-0.654,0.778-0.731,0.894
		c-0.443,0.676-1.083,1.655-1.709,2.816c-0.247,0.362-0.47,0.654-0.631,0.807c-0.294-0.438-0.745-1.629-1.064-3.457
		c-0.194-1.121-0.292-2.213-0.292-3.179c0-0.197,0.004-0.387,0.012-0.573c0.258-0.94,0.733-1.688,1.167-2.217
		c0.937-0.292,1.887-0.567,2.7-0.795c0.228-0.052,0.452-0.099,0.67-0.144c0.447-0.07,0.909-0.149,1.381-0.233
		c0.516-0.066,0.93-0.092,1.173-0.064c0.197,0.716-1.133,2.045-1.133,2.045c0.707-0.283,2.732-2.134,3.177-2.547
		c0.071,0.002,0.137,0.009,0.198,0.019c0.543,0.672-1.415,2.58-0.508,2.05c0.659-0.383,1.429-1.37,1.845-1.948
		c0.564,1.226,0.167,3.737,0.195,4.25c0.297,0.467,0.703-4.938,1.743-2.341c1.038,2.596,5.803,6.181,5.61,5.763
		c-1.651-1.422-2.877-3.519-3.706-5.311c0.475-0.851,1.751-1.541,2.504-2.042c-0.236,0.824,0.114,0.841,0.114,0.841
		c0.485,0.114,0.963-0.173,1.401-0.649c0.018-0.021,0.037-0.044,0.056-0.066c0.008-0.01,0.019-0.018,0.028-0.027
		c0.028-0.043,0.056-0.084,0.087-0.123c0.079-0.158,0.186-0.3,0.323-0.418c0.809-1.188,1.402-2.797,1.501-3.074
		c0.047,0.043,0.349,0.241,0.169,0.85c-0.18,0.608-0.288,1.303,0.149,1.621c0.452,0.185,0.874-0.206,1.231-0.75
		c0.102-0.115,0.204-0.277,0.302-0.497c0.025-0.058,0.051-0.113,0.076-0.171c0.218-0.437,0.395-0.87,0.515-1.139
		c0.346-0.78,1.04-1.127,0.91-0.649c-0.128,0.47-0.031,1.211,0.458,0.786c0.488-0.425,0.59-0.39,1.037-1.042
		c0.486-0.638,0.838-1.318,0.838-1.318c0.453-0.163,0.86-0.24,1.221-0.259c0.337,0.026,0.711,0.104,1.125,0.252
		c0,0,0.352,0.681,0.837,1.319c0.446,0.651,0.549,0.617,1.039,1.041c0.487,0.425,0.584-0.317,0.456-0.787
		c-0.129-0.477,0.563-0.129,0.91,0.649c0.119,0.27,0.295,0.703,0.514,1.14c0.025,0.056,0.051,0.114,0.077,0.171
		c0.097,0.22,0.198,0.382,0.302,0.497c0.357,0.543,0.779,0.934,1.23,0.749c0.436-0.318,0.329-1.012,0.148-1.62
		c-0.179-0.607,0.122-0.808,0.17-0.851c0.089,0.249,0.579,1.576,1.264,2.706c0.022,0.027,0.042,0.056,0.062,0.086
		c0.01,0.012,0.024,0.03,0.037,0.051c0.005,0.004,0.006,0.006,0.011,0.01c0.097,0.096,0.181,0.207,0.259,0.319
		c0.064,0.09,0.096,0.193,0.151,0.288c0.085,0.108,0.174,0.21,0.264,0.304c0.032,0.03,0.065,0.06,0.094,0.093
		c0.397,0.385,0.825,0.604,1.256,0.502c0,0,0.352-0.019,0.114-0.844c0.754,0.501,2.031,1.193,2.505,2.043
		c-0.828,1.793-2.054,3.889-3.706,5.311c-0.192,0.418,4.572-3.165,5.611-5.761c1.039-2.597,1.445,2.807,1.742,2.34
		c0.03-0.513-0.368-3.024,0.195-4.251c0.417,0.579,1.187,1.564,1.844,1.949c0.907,0.53-1.052-1.377-0.507-2.051
		c0.06-0.009,0.126-0.016,0.198-0.017c0.444,0.41,2.47,2.263,3.176,2.546c0,0-1.328-1.33-1.133-2.045
		c0.244-0.028,0.659-0.003,1.174,0.064c0.472,0.083,0.933,0.163,1.381,0.233c0.218,0.044,0.442,0.092,0.671,0.143
		c0.813,0.23,1.763,0.506,2.7,0.796c0.433,0.53,0.908,1.277,1.165,2.218c0.008,0.185,0.014,0.376,0.014,0.573
		C92.268,27.483,92.169,28.576,91.975,29.696z M108.181,13.121c-0.45,2.298-1.549,4.271-3.187,5.68
		c-0.078,0.067-0.158,0.131-0.235,0.196c0.974-1.711,1.11-3.745,0.771-3.741c-0.45,2.682-1.72,4.298-2.945,5.266
		c-1.339,0.773-2.776,1.315-4.389,1.641c-0.518,0.073-0.996,0.093-1.402,0.082c0.005,0,0.011-0.003,0.016-0.006
		c0,0-0.017,0.003-0.045,0.006c-0.478-0.012-0.857-0.064-1.084-0.118c-0.296-0.068-0.491-0.193-0.577-0.375
		c-0.12-0.249,0.007-0.522,0.007-0.526l-0.075-0.05c-0.259,0.282-0.328,0.497-0.332,0.505c-0.19,0.644,0.092,1.21,0.104,1.233
		l-0.001-0.003c0.102,0.236,0.33,0.564,0.712,0.902c0.381,0.336,0.861,0.643,1.432,0.955c0,0-2.523-0.11-4.677-1.973
		c-2.153-1.864-1.105-0.699-4.89-1.164c-1.469-0.182-2.534-0.318-3.288-0.417c-0.575-0.115-1.194-0.24-1.829-0.374
		c-1.187-0.326-2.189-0.664-2.864-0.931c-1.201-0.532-1.705-0.963-1.714-0.971l-0.094-0.084l0.019,0.124
		c-0.036,0.016-0.048,0.063-0.034,0.148c0.047,0.285,0.8,2.017,0.834,2.583c-0.373-0.166-0.803-0.442-1.239-0.765
		c-1.014-0.962-2.086-2.253-2.548-3.048c-0.463-0.795-1.132-2.928-1.109-2.468c0.022,0.46,0.106,2.763,0.253,4.463
		c-0.006,0.088-0.009,0.176-0.009,0.269c0,0.166,0.01,0.337,0.026,0.511l-0.021,0.045c-0.283-0.709-0.787-1.981-1.088-2.66
		c-0.393-1.145-0.699-1.958-0.935-2.517c-0.291-0.824-0.526-2.074-0.682-2.093c-0.156-0.018-0.461,5.248-0.499,6.003
		c-0.308-0.445-0.569-0.98-0.809-1.471c-0.196-0.405-1.574-3.567-1.787-3.644c-0.215-0.075-0.271,2.204-0.341,3.211
		c-0.884-1.234-1.2-1.93-1.661-3.031c-0.037-0.09-0.076-0.177-0.114-0.268l-0.396-0.955c-0.047-0.126-0.093-0.254-0.138-0.388
		c-0.034-0.103-0.076-0.184-0.125-0.247l-0.052-0.123h-0.087c-0.106-0.059-0.222-0.054-0.322,0h-0.151
		c-0.072,0.232-0.154,0.456-0.238,0.67c-0.106,0.259-0.245,0.584-0.372,0.882c-0.068,0.157-0.133,0.302-0.188,0.435
		c-0.045,0.107-0.088,0.209-0.131,0.31c-0.016,0.038-0.026,0.061-0.026,0.061h0.001c-0.386,0.902-0.724,1.571-1.504,2.661
		c-0.07-1.007-0.127-3.286-0.341-3.211c-0.214,0.076-1.592,3.24-1.789,3.644c-0.238,0.491-0.5,1.025-0.807,1.471
		c-0.039-0.755-0.344-6.022-0.5-6.003c-0.156,0.019-0.392,1.269-0.683,2.094c-0.234,0.558-0.541,1.371-0.934,2.517
		c-0.301,0.678-0.806,1.951-1.088,2.66l-0.021-0.047c0.017-0.173,0.026-0.345,0.026-0.511c0-0.091-0.003-0.18-0.01-0.267
		c0.149-1.7,0.231-4.005,0.254-4.464c0.022-0.46-0.646,1.673-1.109,2.468c-0.461,0.796-1.534,2.087-2.548,3.047
		c-0.436,0.323-0.865,0.6-1.239,0.765c0.035-0.565,0.788-2.297,0.835-2.582c0.013-0.086,0-0.133-0.036-0.148l0.02-0.124
		l-0.095,0.084c-0.008,0.007-0.513,0.439-1.713,0.971c-0.675,0.267-1.677,0.604-2.864,0.932c-2.794,0.588-5.25,1.009-5.25,1.009
		s-0.575,0.115-1.278,0.262c-2.087,0.066-1.667-0.509-3.375,0.96c-0.105,0.068-0.214,0.14-0.34,0.22
		c-0.576,0.368-2.603,1.272-3.612,1.412c-0.098,0.016-0.193,0.031-0.286,0.042c-0.183,0.016-0.366,0.025-0.542,0.022
		c0.522-0.285,0.837-0.436,1.146-0.673c0.31-0.235,0.449-0.382,0.664-0.633c0.208-0.245,0.326-0.531,0.334-0.548
		c0.012-0.025,0.293-0.591,0.102-1.233c-0.003-0.01-0.072-0.225-0.332-0.507l-0.075,0.051c0,0.002,0.128,0.278,0.009,0.526
		c-0.087,0.18-0.281,0.307-0.577,0.375c-0.425,0.099-1.369,0.195-2.518,0.036c-1.611-0.325-3.05-0.867-4.388-1.642
		c-1.227-0.966-2.495-2.584-2.945-5.266c-0.34-0.004-0.202,2.031,0.771,3.741c-0.079-0.065-0.158-0.129-0.235-0.197
		c-1.633-1.403-2.729-3.37-3.183-5.659c-0.118-2.671,0.723-4.725,0.723-4.725c1.328-3.691,5.8-5.794,6.82-5.989
		c1.02-0.196,2.739-0.37,3.551-0.11c-1.782,0.116-2.996,0.759-4.701,1.767c-0.691,0.409-2.924,1.949-2.924,4.76
		c0,0.032,0.001,0.063,0.001,0.093v0.037c0,0.804,0.454,2.523,0.802,3.817c0.348,1.295,0.533,1.285,0.607,1.253
		c0.074-0.031,0.021-0.25-0.031-0.605c-0.053-0.356,0.267-0.722,0.65-0.337c0.385,0.384,1.5,1.22,1.636,1.294
		c2.123,1.34,5.202,1.436,9.41,0.29c3.68-1.001,7.609-2.81,8.739-3.301c1.13-0.492,2.613-1.291,2.721-1.355
		c-0.084,0.112-0.163,0.23-0.229,0.356c-0.458,0.871-0.39,1.633-0.229,1.375c0.16-0.259,1.467-2.016,1.467-2.016
		c-0.596,1.329-0.303,2.141-0.185,1.97c0.01-0.014,0.022-0.044,0.036-0.085c0.039-0.054,0.094-0.155,0.16-0.35
		c0.131-0.398,1.427-3.248,4.05-2.789C53.969,9.205,53.92,10.8,53.92,10.8c0.229,0.747,0.632,0.172,0.632,0.172
		c0.804-2.24,2.584-3.445,2.584-3.445c3.029-1.588,4.976-0.849,6.156,0.25c0.371,0.563,1.08,1.815,1.018,3.103
		c0,0,0.363,0.705,1.05,0.13c0,0-0.067-1.931,0.742-2.844c0.192-0.216,0.3-0.375,0.355-0.492c1.18-1.097,3.126-1.832,6.15-0.247
		c0,0,1.78,1.206,2.585,3.446c0,0,0.402,0.574,0.631-0.172c0,0-0.047-1.515-0.671-2.246c2.59-0.415,3.869,2.401,3.999,2.797
		c0.059,0.172,0.107,0.271,0.146,0.328c0.02,0.069,0.036,0.115,0.048,0.135c0.119,0.171,0.413-0.642-0.183-1.971
		c0,0,1.305,1.758,1.466,2.017c0.162,0.258,0.23-0.504-0.229-1.375c-0.066-0.126-0.145-0.246-0.229-0.357
		c0.108,0.063,1.591,0.864,2.722,1.355c1.129,0.491,5.059,2.3,8.738,3.301c4.208,1.145,7.286,1.05,9.411-0.29
		c0.134-0.075,1.25-0.91,1.634-1.295c0.384-0.383,0.704-0.017,0.651,0.338c-0.054,0.355-0.105,0.573-0.031,0.606
		c0.075,0.031,0.258,0.041,0.605-1.253c0.349-1.295,0.803-3.014,0.803-3.819V8.938c0.001-0.031,0.001-0.062,0.001-0.093
		c0-2.81-2.233-4.351-2.924-4.76c-1.706-1.008-2.919-1.651-4.701-1.767c0.692-0.222,1.697-0.4,2.391-0.237
		c1.138,0.527,6.305,1.777,7.98,6.434C107.453,8.516,108.269,10.508,108.181,13.121z M102.119,2.194
		c0.719-0.176,1.425-0.285,2.378,0.315c0.216,0.136,1.243,0.9,1.475,1.125c1.5,1.456,2.438,4.188,2.441,7.047
		C107.915,8.196,106.417,3.462,102.119,2.194z"/>
	<path class="st3" d="M59.773,66.184c0,0-1.542-2.452-1.521-2.415C58.202,63.654,59.773,66.184,59.773,66.184z"/>
	<path class="st3" d="M71.492,63.764c0.02-0.037,0.038-0.071,0.045-0.094C71.559,63.607,71.542,63.646,71.492,63.764z"/>
	<path class="st2" d="M74.904,28.862c-0.531,0.637-1.442,1.429-3.239,1.527c-0.256,0.013-0.524,0.005-0.798-0.03
		c0,0,0.886,0.36,1.532,0.332c0.647-0.03,2.379-0.838,3.536-2.252C77.093,27.024,75.437,28.223,74.904,28.862z"/>
	<path class="st2" d="M55.021,28.944c0,0,1.301,1.173,3.097,1.272c0.257,0.015,0.524,0.006,0.797-0.03c0,0-0.887,0.362-1.533,0.332
		c-0.646-0.03-2.378-0.837-3.535-2.251C52.689,26.853,55.021,28.944,55.021,28.944z"/>
	<path class="st3" d="M64.275,30.51c-2.648,0.225-6.729,0.227-8.188,2.6c0,0-0.198,0.124-0.198-0.1c0-0.222,1.113-2.422,2.225-2.621
		C58.115,30.39,66.923,30.284,64.275,30.51z"/>
	<path class="st3" d="M65.372,30.51c2.648,0.225,6.729,0.227,8.188,2.6c0,0,0.198,0.124,0.198-0.1c0-0.222-1.113-2.422-2.225-2.621
		C71.532,30.39,62.725,30.284,65.372,30.51z"/>
	<path class="st5" d="M63.204,8.205c0,0,2.274,1.034,3.376-0.241v4.341h-3.204L63.204,8.205z"/>
	<path class="st5" d="M26.452,2.372"/>
</g>
<g>
	<path class="st1" d="M144.863,45.211v0.159c-0.281,0.056-0.53,0.16-0.748,0.313c-0.218,0.153-0.434,0.405-0.646,0.758
		s-0.433,0.862-0.664,1.529l-3.862,11.381h-0.14l-3.517-11.381h-0.047l-3.825,11.381h-0.14l-3.919-12.55
		c-0.143-0.442-0.314-0.764-0.514-0.964c-0.2-0.199-0.382-0.322-0.547-0.369c-0.166-0.047-0.37-0.079-0.613-0.098v-0.159h4.274
		v0.159c-0.374,0.024-0.656,0.137-0.846,0.336c-0.19,0.2-0.286,0.446-0.286,0.739c0,0.225,0.053,0.505,0.159,0.842l2.909,9.305
		h0.037l3.124-9.305l-0.131-0.421c-0.125-0.405-0.312-0.75-0.561-1.033c-0.25-0.284-0.639-0.438-1.169-0.463v-0.159h4.405v0.159
		c-0.499,0.006-0.821,0.134-0.968,0.383c-0.146,0.25-0.22,0.48-0.22,0.692c0,0.268,0.046,0.549,0.14,0.842l2.871,9.305h0.038
		l2.927-8.622c0.087-0.23,0.167-0.502,0.239-0.813c0.071-0.312,0.107-0.577,0.107-0.795c0-0.424-0.092-0.689-0.276-0.795
		c-0.184-0.106-0.481-0.172-0.893-0.196v-0.159H144.863z"/>
	<path class="st1" d="M149.554,45.37v-0.159h8.211v2.17h-0.131c0-1.16-0.773-1.74-2.319-1.74h-2.871v6.257h2.525
		c0.499,0,0.944-0.081,1.337-0.243c0.393-0.162,0.617-0.533,0.673-1.113h0.14v3.124h-0.14c-0.056-0.355-0.163-0.628-0.318-0.818
		s-0.31-0.316-0.463-0.379s-0.288-0.094-0.407-0.094c-0.225-0.037-0.458-0.056-0.701-0.056h-2.647v4.891
		c0,0.368,0.07,0.687,0.21,0.954c0.141,0.269,0.466,0.402,0.978,0.402h2.048c0.493,0,0.898-0.071,1.216-0.215
		s0.569-0.343,0.753-0.599c0.184-0.256,0.338-0.564,0.463-0.926h0.131l-0.477,2.16h-8.211v-0.149h0.187
		c0.293,0,0.58-0.118,0.86-0.355c0.281-0.237,0.421-0.623,0.421-1.16V46.94c0-0.424-0.095-0.791-0.285-1.104
		c-0.19-0.312-0.522-0.467-0.996-0.467H149.554z"/>
	<path class="st1" d="M173.404,58.837h0.187c0.336,0,0.634-0.133,0.893-0.397c0.259-0.266,0.388-0.638,0.388-1.118V46.922
		c0-0.573-0.145-0.973-0.435-1.197c-0.29-0.224-0.634-0.343-1.033-0.354v-0.159h4.405v0.159c-0.387,0.012-0.729,0.128-1.029,0.346
		s-0.449,0.62-0.449,1.206v10.054c0,0.599,0.149,1.014,0.449,1.244s0.789,0.346,1.468,0.346h1.188c0.518,0,0.931-0.063,1.239-0.187
		c0.309-0.125,0.553-0.315,0.734-0.571c0.181-0.255,0.365-0.617,0.552-1.085h0.159l-0.523,2.264h-8.192V58.837z"/>
	<path class="st1" d="M191.178,45.211v0.159c-0.412,0-0.761,0.115-1.047,0.346s-0.43,0.614-0.43,1.15v10.455
		c0,0.53,0.153,0.915,0.458,1.155c0.306,0.24,0.646,0.36,1.02,0.36v0.149h-4.367v-0.149c0.399,0,0.743-0.117,1.033-0.351
		c0.29-0.234,0.435-0.622,0.435-1.165V46.866c0-0.573-0.145-0.967-0.435-1.179s-0.634-0.317-1.033-0.317v-0.159H191.178z"/>
	<path class="st1" d="M207.774,45.211v0.159c-0.386,0.024-0.728,0.071-1.024,0.14c-0.296,0.069-0.594,0.24-0.893,0.515
		c-0.218,0.206-0.366,0.343-0.444,0.411c-0.078,0.069-0.164,0.146-0.257,0.234l-4.695,4.639l5.611,6.341
		c0.436,0.486,0.809,0.791,1.117,0.916s0.703,0.215,1.183,0.271v0.149h-2.974l-6.163-6.968v5.303c0,0.979,0.492,1.484,1.478,1.516
		v0.149h-4.368v-0.149c0.274-0.013,0.518-0.064,0.729-0.154c0.212-0.091,0.388-0.246,0.528-0.468c0.141-0.222,0.21-0.52,0.21-0.894
		V46.866c0-0.58-0.145-0.971-0.435-1.174c-0.29-0.202-0.635-0.311-1.034-0.322v-0.159h4.368v0.159
		c-0.985,0.031-1.478,0.529-1.478,1.496v5.087l5.284-5.283c0,0.013,0.013-0.007,0.038-0.057c0.293-0.268,0.439-0.498,0.439-0.691
		c0-0.219-0.086-0.355-0.257-0.412c-0.171-0.056-0.429-0.103-0.771-0.14v-0.159H207.774z"/>
	<path class="st1" d="M212.989,45.37v-0.159h8.212v2.17h-0.131c0-1.16-0.773-1.74-2.32-1.74h-2.871v6.257h2.525
		c0.498,0,0.945-0.081,1.338-0.243s0.617-0.533,0.672-1.113h0.141v3.124h-0.141c-0.055-0.355-0.162-0.628-0.316-0.818
		c-0.156-0.19-0.311-0.316-0.463-0.379c-0.154-0.063-0.289-0.094-0.408-0.094c-0.225-0.037-0.457-0.056-0.701-0.056h-2.646v4.891
		c0,0.368,0.07,0.687,0.21,0.954c0.141,0.269,0.466,0.402,0.977,0.402h2.049c0.492,0,0.896-0.071,1.215-0.215
		s0.57-0.343,0.754-0.599s0.338-0.564,0.463-0.926h0.131l-0.477,2.16h-8.212v-0.149h0.187c0.293,0,0.58-0.118,0.86-0.355
		c0.281-0.237,0.421-0.623,0.421-1.16V46.94c0-0.424-0.095-0.791-0.285-1.104c-0.19-0.312-0.522-0.467-0.996-0.467H212.989z"/>
	<path class="st1" d="M236.783,45.37v-0.159h8.268v2.095h-0.15c-0.037-0.431-0.195-0.815-0.473-1.155s-0.752-0.51-1.426-0.51h-3.311
		v6.238h3.086c0.586,0,0.986-0.12,1.197-0.36c0.213-0.24,0.35-0.572,0.412-0.996h0.148v3.124h-0.148
		c-0.037-0.393-0.168-0.716-0.389-0.968c-0.221-0.253-0.629-0.379-1.221-0.379h-3.086v5.021c0,0.455,0.131,0.822,0.393,1.1
		s0.576,0.416,0.945,0.416h0.195v0.149h-4.441v-0.149h0.188c0.373,0,0.684-0.141,0.93-0.421s0.369-0.646,0.369-1.095V46.903
		c0-0.592-0.133-0.996-0.402-1.211c-0.268-0.215-0.566-0.322-0.896-0.322H236.783z"/>
	<path class="st1" d="M255.596,45.042l4.125,11.803c0.217,0.611,0.424,1.054,0.617,1.328s0.379,0.447,0.557,0.519
		c0.178,0.072,0.402,0.12,0.678,0.146v0.149h-4.498v-0.149c0.461,0,0.816-0.044,1.064-0.131c0.25-0.088,0.375-0.324,0.375-0.711
		c0-0.212-0.059-0.496-0.178-0.852c-0.025-0.05-0.037-0.087-0.037-0.111l-1.225-3.657h-4.77l-1.096,3.386
		c-0.148,0.461-0.225,0.832-0.225,1.112c0,0.387,0.098,0.645,0.291,0.771c0.193,0.128,0.467,0.192,0.822,0.192v0.149h-3.236v-0.149
		c0.463-0.044,0.832-0.22,1.109-0.528s0.52-0.778,0.725-1.408l3.891-11.858H255.596z M252.463,52.88h4.387l-2.246-6.537h-0.037
		L252.463,52.88z"/>
	<path class="st1" d="M277.662,48.297h-0.158c-0.119-0.673-0.436-1.244-0.949-1.711c-0.516-0.468-1.105-0.81-1.773-1.024
		c-0.666-0.215-1.289-0.323-1.869-0.323c-0.793,0-1.535,0.167-2.23,0.501c-0.695,0.333-1.295,0.804-1.801,1.412
		c-0.506,0.607-0.898,1.337-1.178,2.188c-0.281,0.851-0.422,1.775-0.422,2.772c0,0.967,0.137,1.863,0.408,2.689
		c0.27,0.826,0.666,1.543,1.188,2.15c0.52,0.608,1.123,1.067,1.809,1.38c0.686,0.312,1.447,0.467,2.281,0.467
		c0.699,0,1.467-0.142,2.301-0.425c0.836-0.284,1.59-0.756,2.264-1.417v0.533c-0.828,0.642-1.588,1.112-2.277,1.412
		c-0.689,0.299-1.547,0.448-2.576,0.448c-1.084,0-2.074-0.197-2.969-0.594c-0.895-0.396-1.65-0.93-2.268-1.604
		s-1.086-1.431-1.404-2.272c-0.316-0.842-0.477-1.708-0.477-2.6c0-1.341,0.33-2.586,0.992-3.736c0.66-1.15,1.555-2.061,2.684-2.731
		c1.129-0.67,2.354-1.005,3.676-1.005c0.816,0,1.686,0.121,2.609,0.364l0.973,0.271c0.186,0.037,0.346,0.057,0.477,0.057
		c0.242,0,0.404-0.036,0.486-0.107c0.08-0.072,0.143-0.201,0.188-0.389h0.148L277.662,48.297z"/>
	<path class="st1" d="M287.227,45.211v0.159c-0.412,0-0.762,0.115-1.049,0.346c-0.285,0.23-0.43,0.614-0.43,1.15v10.455
		c0,0.53,0.152,0.915,0.459,1.155c0.305,0.24,0.645,0.36,1.02,0.36v0.149h-4.367v-0.149c0.398,0,0.742-0.117,1.033-0.351
		c0.289-0.234,0.434-0.622,0.434-1.165V46.866c0-0.573-0.145-0.967-0.434-1.179c-0.291-0.212-0.635-0.317-1.033-0.317v-0.159
		H287.227z"/>
	<path class="st1" d="M298.727,45.042l4.123,11.803c0.219,0.611,0.424,1.054,0.617,1.328s0.379,0.447,0.557,0.519
		c0.178,0.072,0.404,0.12,0.678,0.146v0.149h-4.498v-0.149c0.461,0,0.816-0.044,1.066-0.131c0.25-0.088,0.373-0.324,0.373-0.711
		c0-0.212-0.059-0.496-0.178-0.852c-0.023-0.05-0.037-0.087-0.037-0.111l-1.225-3.657h-4.77l-1.094,3.386
		c-0.15,0.461-0.225,0.832-0.225,1.112c0,0.387,0.096,0.645,0.289,0.771c0.193,0.128,0.469,0.192,0.824,0.192v0.149h-3.236v-0.149
		c0.461-0.044,0.83-0.22,1.107-0.528s0.52-0.778,0.725-1.408l3.891-11.858H298.727z M295.592,52.88h4.387l-2.244-6.537h-0.037
		L295.592,52.88z"/>
	<path class="st1" d="M309.477,58.837h0.188c0.336,0,0.635-0.133,0.893-0.397c0.26-0.266,0.389-0.638,0.389-1.118V46.922
		c0-0.573-0.145-0.973-0.436-1.197c-0.289-0.224-0.635-0.343-1.033-0.354v-0.159h4.404v0.159c-0.387,0.012-0.729,0.128-1.027,0.346
		c-0.301,0.218-0.449,0.62-0.449,1.206v10.054c0,0.599,0.148,1.014,0.449,1.244c0.299,0.23,0.789,0.346,1.467,0.346h1.189
		c0.518,0,0.93-0.063,1.238-0.187c0.309-0.125,0.553-0.315,0.734-0.571c0.18-0.255,0.365-0.617,0.551-1.085h0.16l-0.523,2.264
		h-8.193V58.837z"/>
	<path class="st1" d="M343.828,51.514v-4.61c0-0.449-0.121-0.816-0.363-1.104c-0.244-0.286-0.621-0.43-1.133-0.43v-0.159h4.387
		v0.159c-0.512,0-0.885,0.142-1.123,0.425c-0.236,0.284-0.355,0.653-0.355,1.108v10.418c0,1.011,0.492,1.516,1.479,1.516v0.149
		h-4.387v-0.149c0.469,0,0.834-0.127,1.1-0.379c0.264-0.253,0.396-0.625,0.396-1.117v-5.406h-7.893v5.387
		c0,0.48,0.135,0.853,0.406,1.118c0.271,0.265,0.635,0.397,1.09,0.397v0.149h-4.387v-0.149c0.475,0,0.838-0.133,1.09-0.397
		c0.254-0.266,0.379-0.638,0.379-1.118V46.903c0-1.022-0.488-1.533-1.469-1.533v-0.159h4.387v0.159
		c-0.518,0-0.896,0.142-1.137,0.425c-0.24,0.284-0.359,0.653-0.359,1.108v4.61H343.828z"/>
	<path class="st1" d="M358.143,45.042l4.125,11.803c0.217,0.611,0.424,1.054,0.617,1.328s0.379,0.447,0.557,0.519
		c0.178,0.072,0.402,0.12,0.678,0.146v0.149h-4.498v-0.149c0.461,0,0.816-0.044,1.064-0.131c0.25-0.088,0.375-0.324,0.375-0.711
		c0-0.212-0.059-0.496-0.178-0.852c-0.025-0.05-0.037-0.087-0.037-0.111l-1.225-3.657h-4.77l-1.096,3.386
		c-0.148,0.461-0.225,0.832-0.225,1.112c0,0.387,0.098,0.645,0.291,0.771c0.193,0.128,0.467,0.192,0.822,0.192v0.149h-3.236v-0.149
		c0.463-0.044,0.832-0.22,1.109-0.528s0.52-0.778,0.725-1.408l3.891-11.858H358.143z M355.01,52.88h4.387l-2.246-6.537h-0.037
		L355.01,52.88z"/>
	<path class="st1" d="M373.262,45.211v0.159c-0.412,0-0.762,0.115-1.049,0.346c-0.285,0.23-0.43,0.614-0.43,1.15v10.455
		c0,0.53,0.152,0.915,0.459,1.155c0.305,0.24,0.645,0.36,1.02,0.36v0.149h-4.367v-0.149c0.398,0,0.742-0.117,1.033-0.351
		c0.289-0.234,0.434-0.622,0.434-1.165V46.866c0-0.573-0.145-0.967-0.434-1.179c-0.291-0.212-0.635-0.317-1.033-0.317v-0.159
		H373.262z"/>
	<path class="st1" d="M378.635,45.407h-0.188v-0.196h4.77c0.768,0,1.418,0.118,1.951,0.355c0.533,0.236,0.947,0.537,1.244,0.902
		c0.295,0.364,0.508,0.75,0.635,1.155c0.129,0.405,0.191,0.804,0.191,1.196c0,0.499-0.104,0.978-0.313,1.436
		c-0.209,0.459-0.529,0.853-0.963,1.184c-0.434,0.33-0.975,0.555-1.623,0.673v0.038c0.822,0.398,1.584,1.19,2.281,2.375l1.244,2.104
		c0.563,0.941,1.012,1.537,1.352,1.786s0.676,0.39,1.006,0.421v0.149h-2.506c-0.107-0.137-0.207-0.27-0.301-0.397
		s-0.193-0.264-0.299-0.407c-0.063-0.093-0.154-0.234-0.275-0.425s-0.195-0.298-0.221-0.323l-1.645-2.721
		c-0.332-0.556-0.67-1.006-1.016-1.352c-0.346-0.347-0.668-0.594-0.967-0.744c-0.301-0.149-0.57-0.243-0.811-0.28
		s-0.521-0.056-0.846-0.056v5.04c0,0.979,0.498,1.484,1.496,1.516v0.149h-4.387v-0.149c0.275-0.013,0.518-0.064,0.73-0.154
		c0.211-0.091,0.389-0.246,0.527-0.468c0.141-0.222,0.211-0.52,0.211-0.894V46.903c0-0.549-0.133-0.936-0.402-1.159
		C379.246,45.52,378.953,45.407,378.635,45.407z M381.338,51.916h0.785c0.824,0,1.498-0.118,2.025-0.355
		c0.527-0.236,0.908-0.575,1.145-1.015c0.238-0.439,0.355-0.978,0.355-1.613c0-0.529-0.105-1.049-0.316-1.557
		c-0.213-0.509-0.572-0.936-1.08-1.281c-0.51-0.347-1.193-0.52-2.053-0.52c-0.35,0-0.637,0.028-0.861,0.084V51.916z"/>
</g>
</svg>
