<?xml version="1.0" encoding="utf-8"?>
<!-- Generator: Adobe Illustrator 16.0.0, SVG Export Plug-In . SVG Version: 6.00 Build 0)  -->
<!DOCTYPE svg PUBLIC "-//W3C//DTD SVG 1.1//EN" "http://www.w3.org/Graphics/SVG/1.1/DTD/svg11.dtd">
<svg version="1.1" id="Layer_1" xmlns="http://www.w3.org/2000/svg" xmlns:xlink="http://www.w3.org/1999/xlink" x="0px" y="0px"
	 width="294.048px" height="34.062px" viewBox="0 0 294.048 34.062" style="enable-background:new 0 0 294.048 34.062;"
	 xml:space="preserve">
<g>
	<path d="M26.579,9.897h-0.267C26.19,8.3,25.724,7.266,24.915,6.794c-0.81-0.471-1.808-0.707-2.995-0.707h-4.875v20.581
		c0,1.741,0.887,2.64,2.662,2.695v0.266h-7.803v-0.266c0.732-0.022,1.351-0.236,1.855-0.641c0.504-0.405,0.757-1.09,0.757-2.055
		V6.087H9.641c-1.187,0-2.182,0.236-2.986,0.707C5.851,7.266,5.382,8.3,5.249,9.897H4.982v-5.99h0.267
		C5.426,4.185,5.582,4.39,5.715,4.523C5.848,4.656,6.02,4.77,6.23,4.864c0.21,0.094,0.458,0.161,0.74,0.2
		c0.283,0.039,0.618,0.058,1.007,0.058H23.85c1.054,0,1.875-0.405,2.462-1.215h0.267V9.897z"/>
	<path d="M47.509,16.336V8.133c0-0.798-0.216-1.453-0.649-1.963s-1.104-0.766-2.013-0.766V5.122h7.803v0.283
		c-0.91,0-1.575,0.252-1.997,0.757c-0.422,0.505-0.632,1.162-0.632,1.972v18.535c0,1.797,0.876,2.695,2.629,2.695v0.266h-7.803
		v-0.266c0.832,0,1.483-0.225,1.955-0.674c0.472-0.449,0.708-1.112,0.708-1.988v-9.617H33.466v9.583
		c0,0.854,0.241,1.517,0.724,1.988c0.482,0.471,1.128,0.707,1.938,0.707v0.266h-7.803v-0.266c0.843,0,1.489-0.236,1.938-0.707
		c0.449-0.472,0.674-1.134,0.674-1.988V8.133c0-1.819-0.871-2.729-2.612-2.729V5.122h7.803v0.283c-0.921,0-1.595,0.252-2.021,0.757
		c-0.427,0.505-0.641,1.162-0.641,1.972v8.203H47.509z"/>
	<path d="M54.962,5.405V5.122H69.57v3.86h-0.233c0-2.063-1.375-3.095-4.126-3.095h-5.108v11.131h4.492
		c0.887,0,1.681-0.144,2.379-0.433s1.098-0.948,1.198-1.98h0.25v5.557h-0.25c-0.1-0.632-0.289-1.117-0.565-1.456
		c-0.277-0.338-0.552-0.563-0.824-0.674c-0.272-0.11-0.513-0.166-0.724-0.166c-0.399-0.067-0.815-0.1-1.248-0.1h-4.708v8.702
		c0,0.655,0.125,1.22,0.375,1.697c0.25,0.477,0.829,0.716,1.739,0.716h3.644c0.876,0,1.597-0.127,2.163-0.383
		c0.565-0.255,1.012-0.61,1.339-1.065c0.327-0.455,0.602-1.003,0.824-1.647h0.233l-0.849,3.843H54.962v-0.266h0.333
		c0.521,0,1.031-0.21,1.531-0.632c0.499-0.421,0.749-1.109,0.749-2.063V8.2c0-0.754-0.169-1.409-0.507-1.963
		c-0.338-0.555-0.929-0.832-1.772-0.832H54.962z"/>
	<path d="M92.863,29.629h-9.167v-0.266h0.333c0.621,0,1.156-0.225,1.605-0.674s0.674-1.123,0.674-2.021V8.167
		c0-0.876-0.208-1.556-0.624-2.038s-0.979-0.724-1.688-0.724h-0.3V5.122h8.003c1.054,0,2.024,0.152,2.912,0.458
		c0.887,0.305,1.639,0.727,2.254,1.265s1.09,1.148,1.422,1.83c0.334,0.682,0.5,1.422,0.5,2.221c0,1.475-0.477,2.673-1.432,3.594
		c-0.953,0.92-2.234,1.597-3.843,2.03v0.066c0.732,0.078,1.437,0.194,2.112,0.349c0.678,0.156,1.287,0.372,1.83,0.649
		c0.545,0.277,1.055,0.638,1.531,1.082c0.434,0.399,0.799,0.838,1.098,1.314c0.301,0.477,0.527,0.996,0.684,1.556
		c0.154,0.56,0.232,1.134,0.232,1.722c0,1.275-0.33,2.374-0.99,3.294c-0.66,0.921-1.406,1.62-2.238,2.097
		C96.585,29.302,94.949,29.629,92.863,29.629z M88.837,16.369h1.597c1.309,0,2.241-0.133,2.795-0.399
		c0.355-0.177,0.724-0.421,1.106-0.732c0.382-0.311,0.749-0.799,1.098-1.464c0.349-0.666,0.524-1.469,0.524-2.412
		c0-0.732-0.117-1.428-0.35-2.088c-0.233-0.66-0.572-1.245-1.015-1.755c-0.444-0.51-0.971-0.91-1.581-1.198
		c-0.61-0.288-1.276-0.433-1.997-0.433c-0.632,0-1.359,0.122-2.18,0.366V16.369z M91.349,17.118h-2.512v8.835
		c0,0.588,0.058,1.079,0.175,1.472c0.117,0.394,0.435,0.735,0.957,1.023s1.325,0.433,2.413,0.433c2.251,0,3.855-0.749,4.808-2.246
		c0.654-1.032,0.982-2.19,0.982-3.478c0-0.932-0.164-1.774-0.492-2.529c-0.326-0.754-0.775-1.384-1.348-1.888
		c-0.57-0.505-1.289-0.901-2.154-1.19C93.313,17.262,92.37,17.118,91.349,17.118z"/>
	<path d="M103.229,5.405V5.122h14.607v3.86h-0.232c0-2.063-1.375-3.095-4.127-3.095h-5.107v11.131h4.492
		c0.889,0,1.682-0.144,2.379-0.433c0.699-0.289,1.1-0.948,1.199-1.98h0.25v5.557h-0.25c-0.1-0.632-0.289-1.117-0.566-1.456
		c-0.277-0.338-0.551-0.563-0.824-0.674c-0.271-0.11-0.512-0.166-0.723-0.166c-0.4-0.067-0.814-0.1-1.248-0.1h-4.709v8.702
		c0,0.655,0.125,1.22,0.375,1.697c0.25,0.477,0.828,0.716,1.738,0.716h3.645c0.875,0,1.596-0.127,2.162-0.383
		c0.566-0.255,1.012-0.61,1.34-1.065c0.326-0.455,0.602-1.003,0.824-1.647h0.232l-0.85,3.843h-14.607v-0.266h0.332
		c0.521,0,1.032-0.21,1.531-0.632c0.499-0.421,0.748-1.109,0.748-2.063V8.2c0-0.754-0.169-1.409-0.507-1.963
		c-0.339-0.555-0.93-0.832-1.772-0.832H103.229z"/>
	<path d="M131.795,4.823l7.338,20.997c0.387,1.087,0.754,1.875,1.098,2.363c0.344,0.488,0.674,0.796,0.99,0.923
		s0.717,0.213,1.205,0.258v0.266h-8.002v-0.266c0.82,0,1.453-0.078,1.896-0.233s0.666-0.577,0.666-1.265
		c0-0.377-0.105-0.882-0.316-1.514c-0.045-0.088-0.066-0.155-0.066-0.199l-2.18-6.505h-8.484l-1.947,6.022
		c-0.266,0.821-0.4,1.481-0.4,1.98c0,0.688,0.172,1.146,0.516,1.373c0.344,0.228,0.832,0.341,1.465,0.341v0.266h-5.756v-0.266
		c0.82-0.078,1.477-0.391,1.971-0.94c0.494-0.549,0.924-1.384,1.289-2.504l6.922-21.096H131.795z M126.221,18.765h7.805
		l-3.994-11.63h-0.066L126.221,18.765z"/>
	<path d="M144.34,5.471h-0.332V5.122h8.484c1.365,0,2.521,0.211,3.471,0.632c0.947,0.421,1.686,0.957,2.213,1.605
		c0.525,0.649,0.902,1.334,1.131,2.055c0.227,0.721,0.34,1.431,0.34,2.129c0,0.888-0.186,1.739-0.557,2.554
		c-0.371,0.815-0.943,1.517-1.713,2.104c-0.771,0.588-1.734,0.987-2.887,1.198v0.066c1.463,0.71,2.816,2.119,4.059,4.226
		l2.213,3.743c0.998,1.675,1.801,2.734,2.404,3.178c0.605,0.444,1.201,0.693,1.789,0.749v0.266h-4.459
		c-0.189-0.244-0.367-0.479-0.533-0.707c-0.166-0.227-0.344-0.469-0.531-0.724c-0.111-0.167-0.275-0.419-0.492-0.757
		c-0.215-0.338-0.346-0.529-0.391-0.574l-2.928-4.842c-0.588-0.987-1.189-1.789-1.805-2.404c-0.615-0.615-1.189-1.056-1.723-1.322
		c-0.533-0.267-1.012-0.433-1.439-0.5c-0.426-0.066-0.93-0.1-1.506-0.1v8.968c0,1.741,0.889,2.64,2.662,2.695v0.266h-7.803v-0.266
		c0.488-0.022,0.92-0.114,1.297-0.274s0.691-0.438,0.941-0.832s0.373-0.923,0.373-1.589V8.133c0-0.976-0.238-1.664-0.715-2.063
		S144.906,5.471,144.34,5.471z M149.148,17.051h1.398c1.463,0,2.664-0.21,3.602-0.632c0.938-0.421,1.617-1.023,2.039-1.805
		c0.42-0.782,0.631-1.739,0.631-2.87c0-0.942-0.188-1.866-0.564-2.77c-0.377-0.904-1.018-1.664-1.922-2.279
		s-2.121-0.923-3.652-0.923c-0.621,0-1.131,0.05-1.531,0.149V17.051z"/>
	<path d="M166.451,5.405V5.122h9.434c1.32,0,2.537,0.114,3.652,0.341c1.115,0.228,2.113,0.53,2.994,0.907
		c0.883,0.377,1.645,0.791,2.289,1.24c0.643,0.449,1.186,0.907,1.629,1.373c0.777,0.776,1.438,1.639,1.98,2.587
		c0.543,0.948,0.951,1.949,1.223,3.003s0.408,2.141,0.408,3.261c0,1.121-0.133,2.186-0.398,3.195
		c-0.268,1.009-0.65,1.944-1.148,2.803c-0.5,0.86-1.096,1.639-1.789,2.338c-0.693,0.699-1.5,1.331-2.42,1.896
		c-0.789,0.466-1.693,0.843-2.713,1.131c-1.021,0.289-2.402,0.433-4.143,0.433h-10.998v-0.266h0.334
		c0.764,0,1.336-0.289,1.713-0.865s0.566-1.187,0.566-1.83V8.167c0-0.621-0.104-1.142-0.309-1.564
		c-0.205-0.421-0.48-0.726-0.824-0.915c-0.344-0.188-0.727-0.283-1.146-0.283H166.451z M171.592,6.287v19.417
		c0,0.954,0.152,1.655,0.459,2.104c0.305,0.449,0.779,0.74,1.422,0.874c0.643,0.133,1.586,0.2,2.828,0.2
		c1.775,0,3.271-0.175,4.492-0.524c1.221-0.349,2.402-1.128,3.545-2.337c0.842-0.898,1.52-1.997,2.029-3.294
		s0.766-2.867,0.766-4.708c0-1.453-0.205-2.892-0.617-4.317c-0.41-1.425-1.037-2.692-1.879-3.802
		c-0.943-1.253-2.154-2.235-3.635-2.945c-1.482-0.709-3.264-1.065-5.35-1.065C174.576,5.887,173.223,6.021,171.592,6.287z"/>
	<path d="M226.498,10.612h-0.283c-0.211-1.198-0.773-2.213-1.689-3.044c-0.914-0.832-1.965-1.439-3.152-1.822
		c-1.188-0.383-2.297-0.574-3.328-0.574c-1.408,0-2.73,0.297-3.967,0.89c-1.238,0.594-2.305,1.431-3.203,2.512
		s-1.598,2.379-2.096,3.894c-0.5,1.514-0.75,3.158-0.75,4.933c0,1.719,0.242,3.313,0.725,4.783s1.186,2.745,2.113,3.827
		c0.926,1.082,1.998,1.899,3.219,2.454s2.572,0.832,4.059,0.832c1.242,0,2.607-0.252,4.094-0.757
		c1.486-0.504,2.828-1.345,4.025-2.521v0.948c-1.475,1.143-2.824,1.98-4.051,2.512c-1.225,0.533-2.754,0.799-4.584,0.799
		c-1.93,0-3.689-0.353-5.281-1.057s-2.938-1.655-4.035-2.854c-1.098-1.198-1.93-2.545-2.496-4.043
		c-0.564-1.497-0.848-3.039-0.848-4.625c0-2.385,0.588-4.601,1.764-6.647s2.768-3.666,4.775-4.858
		c2.006-1.192,4.186-1.789,6.537-1.789c1.453,0,3,0.216,4.643,0.649l1.73,0.482c0.332,0.066,0.615,0.1,0.848,0.1
		c0.434,0,0.721-0.063,0.865-0.191c0.145-0.127,0.256-0.357,0.334-0.69h0.266L226.498,10.612z"/>
	<path d="M228.926,29.363h0.334c0.598,0,1.127-0.236,1.588-0.707c0.461-0.472,0.691-1.134,0.691-1.988V8.167
		c0-1.02-0.258-1.73-0.775-2.129c-0.516-0.399-1.127-0.61-1.838-0.632V5.122h7.836v0.283c-0.688,0.022-1.297,0.228-1.83,0.616
		c-0.531,0.388-0.799,1.104-0.799,2.146v17.886c0,1.065,0.268,1.803,0.799,2.213c0.533,0.411,1.404,0.616,2.613,0.616h2.113
		c0.92,0,1.654-0.111,2.203-0.333c0.549-0.222,0.984-0.56,1.307-1.015c0.322-0.455,0.648-1.098,0.982-1.93h0.281l-0.932,4.026
		h-14.574V29.363z"/>
	<path d="M269.273,29.629h-5.141v-4.06l-0.084-0.066c-0.709,1.653-1.771,2.861-3.186,3.627c-1.414,0.765-2.893,1.148-4.434,1.148
		c-1.742,0-3.309-0.416-4.701-1.248c-1.391-0.832-2.414-1.857-3.068-3.078c-0.467-0.865-0.76-1.767-0.883-2.704
		c-0.121-0.938-0.184-1.911-0.184-2.92V8.133c0-0.732-0.146-1.348-0.439-1.847c-0.295-0.499-0.996-0.793-2.105-0.882V5.122h7.703
		v0.283c-1.131,0.133-1.852,0.46-2.162,0.981c-0.311,0.521-0.467,1.104-0.467,1.747v11.996c0,2.44,0.25,4.243,0.75,5.407
		c0.531,1.242,1.33,2.213,2.395,2.912s2.273,1.048,3.627,1.048c0.566,0,1.236-0.1,2.014-0.299c0.775-0.2,1.502-0.532,2.18-0.998
		c2.029-1.387,3.045-3.61,3.045-6.672V8.133c0-0.676-0.156-1.275-0.467-1.797c-0.311-0.521-1.043-0.832-2.195-0.932V5.122h7.836
		v0.283c-1.131,0.056-1.857,0.372-2.18,0.948c-0.322,0.577-0.482,1.159-0.482,1.747v18.568c0,0.644,0.109,1.151,0.324,1.522
		c0.217,0.372,0.516,0.635,0.898,0.79s0.852,0.283,1.406,0.383V29.629z"/>
	<path d="M280.82,29.629h-9.168v-0.266h0.332c0.621,0,1.156-0.225,1.605-0.674s0.674-1.123,0.674-2.021V8.167
		c0-0.876-0.207-1.556-0.623-2.038s-0.979-0.724-1.689-0.724h-0.299V5.122h8.002c1.055,0,2.025,0.152,2.912,0.458
		c0.889,0.305,1.639,0.727,2.254,1.265c0.617,0.538,1.09,1.148,1.424,1.83c0.332,0.682,0.498,1.422,0.498,2.221
		c0,1.475-0.477,2.673-1.43,3.594c-0.955,0.92-2.236,1.597-3.844,2.03v0.066c0.732,0.078,1.436,0.194,2.113,0.349
		c0.676,0.156,1.287,0.372,1.83,0.649c0.543,0.277,1.053,0.638,1.531,1.082c0.432,0.399,0.797,0.838,1.098,1.314
		c0.299,0.477,0.525,0.996,0.682,1.556s0.232,1.134,0.232,1.722c0,1.275-0.33,2.374-0.99,3.294c-0.658,0.921-1.404,1.62-2.236,2.097
		C284.541,29.302,282.904,29.629,280.82,29.629z M276.793,16.369h1.598c1.309,0,2.24-0.133,2.795-0.399
		c0.355-0.177,0.725-0.421,1.107-0.732s0.748-0.799,1.098-1.464s0.523-1.469,0.523-2.412c0-0.732-0.115-1.428-0.35-2.088
		c-0.232-0.66-0.57-1.245-1.014-1.755s-0.971-0.91-1.582-1.198c-0.609-0.288-1.275-0.433-1.996-0.433
		c-0.631,0-1.357,0.122-2.18,0.366V16.369z M279.307,17.118h-2.514v8.835c0,0.588,0.059,1.079,0.176,1.472
		c0.115,0.394,0.436,0.735,0.957,1.023c0.52,0.289,1.324,0.433,2.412,0.433c2.252,0,3.854-0.749,4.809-2.246
		c0.654-1.032,0.98-2.19,0.98-3.478c0-0.932-0.164-1.774-0.49-2.529c-0.328-0.754-0.777-1.384-1.348-1.888
		c-0.572-0.505-1.289-0.901-2.154-1.19C281.27,17.262,280.326,17.118,279.307,17.118z"/>
</g>
</svg>
